<?xml version="1.0" encoding="UTF-8" standalone="no"?>
<!DOCTYPE svg PUBLIC "-//W3C//DTD SVG 1.1//EN"
 "http://www.w3.org/Graphics/SVG/1.1/DTD/svg11.dtd">
<!-- Generated by graphviz version 6.0.2 (20221011.1828)
 -->
<!-- Pages: 1 -->
<svg width="939pt" height="404pt"
 viewBox="0.00 0.00 939.12 404.00" xmlns="http://www.w3.org/2000/svg" xmlns:xlink="http://www.w3.org/1999/xlink">
<g id="graph0" class="graph" transform="scale(1 1) rotate(0) translate(4 400)">
<polygon fill="white" stroke="none" points="-4,4 -4,-400 935.12,-400 935.12,4 -4,4"/>
<!-- [root] aws_instance.webgd (expand) -->
<g id="node1" class="node">
<title>[root] aws_instance.webgd (expand)</title>
<polygon fill="none" stroke="black" points="411.44,-252 279.44,-252 279.44,-216 411.44,-216 411.44,-252"/>
<text text-anchor="middle" x="345.44" y="-230.3" font-family="Times New Roman,serif" font-size="14.00">aws_instance.webgd</text>
</g>
<!-- [root] aws_key_pair.ssh (expand) -->
<g id="node2" class="node">
<title>[root] aws_key_pair.ssh (expand)</title>
<polygon fill="none" stroke="black" points="295.44,-180 179.44,-180 179.44,-144 295.44,-144 295.44,-180"/>
<text text-anchor="middle" x="237.44" y="-158.3" font-family="Times New Roman,serif" font-size="14.00">aws_key_pair.ssh</text>
</g>
<!-- [root] aws_instance.webgd (expand)&#45;&gt;[root] aws_key_pair.ssh (expand) -->
<g id="edge1" class="edge">
<title>[root] aws_instance.webgd (expand)&#45;&gt;[root] aws_key_pair.ssh (expand)</title>
<path fill="none" stroke="black" d="M319.02,-215.88C305.03,-206.81 287.66,-195.55 272.55,-185.76"/>
<polygon fill="black" stroke="black" points="274.26,-182.69 263.96,-180.19 270.45,-188.57 274.26,-182.69"/>
</g>
<!-- [root] var.amis -->
<g id="node7" class="node">
<title>[root] var.amis</title>
<polygon fill="none" stroke="black" points="370.94,-180 313.94,-180 313.94,-144 376.94,-144 376.94,-174 370.94,-180"/>
<polyline fill="none" stroke="black" points="370.94,-180 370.94,-174"/>
<polyline fill="none" stroke="black" points="376.94,-174 370.94,-174"/>
<text text-anchor="middle" x="345.44" y="-158.3" font-family="Times New Roman,serif" font-size="14.00">var.amis</text>
</g>
<!-- [root] aws_instance.webgd (expand)&#45;&gt;[root] var.amis -->
<g id="edge2" class="edge">
<title>[root] aws_instance.webgd (expand)&#45;&gt;[root] var.amis</title>
<path fill="none" stroke="black" d="M345.44,-215.7C345.44,-207.98 345.44,-198.71 345.44,-190.11"/>
<polygon fill="black" stroke="black" points="348.94,-190.1 345.44,-180.1 341.94,-190.1 348.94,-190.1"/>
</g>
<!-- [root] var.instance_type -->
<g id="node8" class="node">
<title>[root] var.instance_type</title>
<polygon fill="none" stroke="black" points="503.44,-180 395.44,-180 395.44,-144 509.44,-144 509.44,-174 503.44,-180"/>
<polyline fill="none" stroke="black" points="503.44,-180 503.44,-174"/>
<polyline fill="none" stroke="black" points="509.44,-174 503.44,-174"/>
<text text-anchor="middle" x="452.44" y="-158.3" font-family="Times New Roman,serif" font-size="14.00">var.instance_type</text>
</g>
<!-- [root] aws_instance.webgd (expand)&#45;&gt;[root] var.instance_type -->
<g id="edge3" class="edge">
<title>[root] aws_instance.webgd (expand)&#45;&gt;[root] var.instance_type</title>
<path fill="none" stroke="black" d="M371.62,-215.88C385.48,-206.81 402.68,-195.55 417.65,-185.76"/>
<polygon fill="black" stroke="black" points="419.71,-188.59 426.16,-180.19 415.88,-182.74 419.71,-188.59"/>
</g>
<!-- [root] provider[&quot;registry.terraform.io/hashicorp/aws&quot;] -->
<g id="node6" class="node">
<title>[root] provider[&quot;registry.terraform.io/hashicorp/aws&quot;]</title>
<polygon fill="none" stroke="black" points="594.44,-108 337.21,-90 594.44,-72 851.67,-90 594.44,-108"/>
<text text-anchor="middle" x="594.44" y="-86.3" font-family="Times New Roman,serif" font-size="14.00">provider[&quot;registry.terraform.io/hashicorp/aws&quot;]</text>
</g>
<!-- [root] aws_key_pair.ssh (expand)&#45;&gt;[root] provider[&quot;registry.terraform.io/hashicorp/aws&quot;] -->
<g id="edge4" class="edge">
<title>[root] aws_key_pair.ssh (expand)&#45;&gt;[root] provider[&quot;registry.terraform.io/hashicorp/aws&quot;]</title>
<path fill="none" stroke="black" d="M295.49,-146.02C298.51,-145.32 301.51,-144.64 304.44,-144 373.93,-128.85 453.43,-114.53 511.59,-104.61"/>
<polygon fill="black" stroke="black" points="512.2,-108.05 521.47,-102.93 511.02,-101.15 512.2,-108.05"/>
</g>
<!-- [root] var.public_key -->
<g id="node9" class="node">
<title>[root] var.public_key</title>
<polygon fill="none" stroke="black" points="280.94,-108 187.94,-108 187.94,-72 286.94,-72 286.94,-102 280.94,-108"/>
<polyline fill="none" stroke="black" points="280.94,-108 280.94,-102"/>
<polyline fill="none" stroke="black" points="286.94,-102 280.94,-102"/>
<text text-anchor="middle" x="237.44" y="-86.3" font-family="Times New Roman,serif" font-size="14.00">var.public_key</text>
</g>
<!-- [root] aws_key_pair.ssh (expand)&#45;&gt;[root] var.public_key -->
<g id="edge5" class="edge">
<title>[root] aws_key_pair.ssh (expand)&#45;&gt;[root] var.public_key</title>
<path fill="none" stroke="black" d="M237.44,-143.7C237.44,-135.98 237.44,-126.71 237.44,-118.11"/>
<polygon fill="black" stroke="black" points="240.94,-118.1 237.44,-108.1 233.94,-118.1 240.94,-118.1"/>
</g>
<!-- [root] aws_security_group_rule.ssh (expand) -->
<g id="node3" class="node">
<title>[root] aws_security_group_rule.ssh (expand)</title>
<polygon fill="none" stroke="black" points="662.44,-252 482.44,-252 482.44,-216 662.44,-216 662.44,-252"/>
<text text-anchor="middle" x="572.44" y="-230.3" font-family="Times New Roman,serif" font-size="14.00">aws_security_group_rule.ssh</text>
</g>
<!-- [root] data.aws_security_group.default (expand) -->
<g id="node5" class="node">
<title>[root] data.aws_security_group.default (expand)</title>
<polygon fill="none" stroke="black" points="725.44,-180 527.44,-180 527.44,-144 725.44,-144 725.44,-180"/>
<text text-anchor="middle" x="626.44" y="-158.3" font-family="Times New Roman,serif" font-size="14.00">data.aws_security_group.default</text>
</g>
<!-- [root] aws_security_group_rule.ssh (expand)&#45;&gt;[root] data.aws_security_group.default (expand) -->
<g id="edge6" class="edge">
<title>[root] aws_security_group_rule.ssh (expand)&#45;&gt;[root] data.aws_security_group.default (expand)</title>
<path fill="none" stroke="black" d="M585.79,-215.7C592.2,-207.39 600,-197.28 607.05,-188.14"/>
<polygon fill="black" stroke="black" points="609.91,-190.16 613.25,-180.1 604.37,-185.88 609.91,-190.16"/>
</g>
<!-- [root] aws_security_group_rule.webgd (expand) -->
<g id="node4" class="node">
<title>[root] aws_security_group_rule.webgd (expand)</title>
<polygon fill="none" stroke="black" points="879.94,-252 680.94,-252 680.94,-216 879.94,-216 879.94,-252"/>
<text text-anchor="middle" x="780.44" y="-230.3" font-family="Times New Roman,serif" font-size="14.00">aws_security_group_rule.webgd</text>
</g>
<!-- [root] aws_security_group_rule.webgd (expand)&#45;&gt;[root] data.aws_security_group.default (expand) -->
<g id="edge7" class="edge">
<title>[root] aws_security_group_rule.webgd (expand)&#45;&gt;[root] data.aws_security_group.default (expand)</title>
<path fill="none" stroke="black" d="M742.77,-215.88C721.81,-206.35 695.54,-194.41 673.26,-184.28"/>
<polygon fill="black" stroke="black" points="674.54,-181.02 663.99,-180.07 671.65,-187.39 674.54,-181.02"/>
</g>
<!-- [root] data.aws_security_group.default (expand)&#45;&gt;[root] provider[&quot;registry.terraform.io/hashicorp/aws&quot;] -->
<g id="edge8" class="edge">
<title>[root] data.aws_security_group.default (expand)&#45;&gt;[root] provider[&quot;registry.terraform.io/hashicorp/aws&quot;]</title>
<path fill="none" stroke="black" d="M618.53,-143.7C614.83,-135.61 610.35,-125.81 606.27,-116.87"/>
<polygon fill="black" stroke="black" points="609.38,-115.26 602.04,-107.62 603.01,-118.17 609.38,-115.26"/>
</g>
<!-- [root] var.region -->
<g id="node10" class="node">
<title>[root] var.region</title>
<polygon fill="none" stroke="black" points="624.44,-36 558.44,-36 558.44,0 630.44,0 630.44,-30 624.44,-36"/>
<polyline fill="none" stroke="black" points="624.44,-36 624.44,-30"/>
<polyline fill="none" stroke="black" points="630.44,-30 624.44,-30"/>
<text text-anchor="middle" x="594.44" y="-14.3" font-family="Times New Roman,serif" font-size="14.00">var.region</text>
</g>
<!-- [root] provider[&quot;registry.terraform.io/hashicorp/aws&quot;]&#45;&gt;[root] var.region -->
<g id="edge14" class="edge">
<title>[root] provider[&quot;registry.terraform.io/hashicorp/aws&quot;]&#45;&gt;[root] var.region</title>
<path fill="none" stroke="black" d="M594.44,-71.7C594.44,-63.98 594.44,-54.71 594.44,-46.11"/>
<polygon fill="black" stroke="black" points="597.94,-46.1 594.44,-36.1 590.94,-46.1 597.94,-46.1"/>
</g>
<!-- [root] output.DNS (expand) -->
<g id="node11" class="node">
<title>[root] output.DNS (expand)</title>
<ellipse fill="none" stroke="black" cx="112.44" cy="-306" rx="112.38" ry="18"/>
<text text-anchor="middle" x="112.44" y="-302.3" font-family="Times New Roman,serif" font-size="14.00">[root] output.DNS (expand)</text>
</g>
<!-- [root] output.DNS (expand)&#45;&gt;[root] aws_instance.webgd (expand) -->
<g id="edge9" class="edge">
<title>[root] output.DNS (expand)&#45;&gt;[root] aws_instance.webgd (expand)</title>
<path fill="none" stroke="black" d="M162.71,-289.9C196.73,-279.68 242.03,-266.07 279.01,-254.96"/>
<polygon fill="black" stroke="black" points="280.14,-258.27 288.71,-252.04 278.13,-251.57 280.14,-258.27"/>
</g>
<!-- [root] output.IP (expand) -->
<g id="node12" class="node">
<title>[root] output.IP (expand)</title>
<ellipse fill="none" stroke="black" cx="345.44" cy="-306" rx="102.88" ry="18"/>
<text text-anchor="middle" x="345.44" y="-302.3" font-family="Times New Roman,serif" font-size="14.00">[root] output.IP (expand)</text>
</g>
<!-- [root] output.IP (expand)&#45;&gt;[root] aws_instance.webgd (expand) -->
<g id="edge10" class="edge">
<title>[root] output.IP (expand)&#45;&gt;[root] aws_instance.webgd (expand)</title>
<path fill="none" stroke="black" d="M345.44,-287.7C345.44,-279.98 345.44,-270.71 345.44,-262.11"/>
<polygon fill="black" stroke="black" points="348.94,-262.1 345.44,-252.1 341.94,-262.1 348.94,-262.1"/>
</g>
<!-- [root] provider[&quot;registry.terraform.io/hashicorp/aws&quot;] (close) -->
<g id="node13" class="node">
<title>[root] provider[&quot;registry.terraform.io/hashicorp/aws&quot;] (close)</title>
<ellipse fill="none" stroke="black" cx="698.44" cy="-306" rx="232.86" ry="18"/>
<text text-anchor="middle" x="698.44" y="-302.3" font-family="Times New Roman,serif" font-size="14.00">[root] provider[&quot;registry.terraform.io/hashicorp/aws&quot;] (close)</text>
</g>
<!-- [root] provider[&quot;registry.terraform.io/hashicorp/aws&quot;] (close)&#45;&gt;[root] aws_instance.webgd (expand) -->
<g id="edge11" class="edge">
<title>[root] provider[&quot;registry.terraform.io/hashicorp/aws&quot;] (close)&#45;&gt;[root] aws_instance.webgd (expand)</title>
<path fill="none" stroke="black" d="M617.9,-289.03C558.84,-277.32 479.2,-261.52 421.28,-250.04"/>
<polygon fill="black" stroke="black" points="421.94,-246.6 411.45,-248.09 420.58,-253.47 421.94,-246.6"/>
</g>
<!-- [root] provider[&quot;registry.terraform.io/hashicorp/aws&quot;] (close)&#45;&gt;[root] aws_security_group_rule.ssh (expand) -->
<g id="edge12" class="edge">
<title>[root] provider[&quot;registry.terraform.io/hashicorp/aws&quot;] (close)&#45;&gt;[root] aws_security_group_rule.ssh (expand)</title>
<path fill="none" stroke="black" d="M667.94,-288.05C651.19,-278.75 630.23,-267.11 612.21,-257.1"/>
<polygon fill="black" stroke="black" points="613.54,-253.83 603.1,-252.03 610.14,-259.95 613.54,-253.83"/>
</g>
<!-- [root] provider[&quot;registry.terraform.io/hashicorp/aws&quot;] (close)&#45;&gt;[root] aws_security_group_rule.webgd (expand) -->
<g id="edge13" class="edge">
<title>[root] provider[&quot;registry.terraform.io/hashicorp/aws&quot;] (close)&#45;&gt;[root] aws_security_group_rule.webgd (expand)</title>
<path fill="none" stroke="black" d="M718.29,-288.05C728.59,-279.26 741.34,-268.38 752.6,-258.76"/>
<polygon fill="black" stroke="black" points="755.16,-261.19 760.49,-252.03 750.61,-255.86 755.16,-261.19"/>
</g>
<!-- [root] root -->
<g id="node14" class="node">
<title>[root] root</title>
<ellipse fill="none" stroke="black" cx="345.44" cy="-378" rx="49.29" ry="18"/>
<text text-anchor="middle" x="345.44" y="-374.3" font-family="Times New Roman,serif" font-size="14.00">[root] root</text>
</g>
<!-- [root] root&#45;&gt;[root] output.DNS (expand) -->
<g id="edge15" class="edge">
<title>[root] root&#45;&gt;[root] output.DNS (expand)</title>
<path fill="none" stroke="black" d="M308.52,-365.91C272.09,-354.96 215.78,-338.05 172.83,-325.14"/>
<polygon fill="black" stroke="black" points="173.64,-321.73 163.05,-322.21 171.62,-328.44 173.64,-321.73"/>
</g>
<!-- [root] root&#45;&gt;[root] output.IP (expand) -->
<g id="edge16" class="edge">
<title>[root] root&#45;&gt;[root] output.IP (expand)</title>
<path fill="none" stroke="black" d="M345.44,-359.7C345.44,-351.98 345.44,-342.71 345.44,-334.11"/>
<polygon fill="black" stroke="black" points="348.94,-334.1 345.44,-324.1 341.94,-334.1 348.94,-334.1"/>
</g>
<!-- [root] root&#45;&gt;[root] provider[&quot;registry.terraform.io/hashicorp/aws&quot;] (close) -->
<g id="edge17" class="edge">
<title>[root] root&#45;&gt;[root] provider[&quot;registry.terraform.io/hashicorp/aws&quot;] (close)</title>
<path fill="none" stroke="black" d="M387.67,-368.63C441.85,-357.88 537.29,-338.96 608.15,-324.9"/>
<polygon fill="black" stroke="black" points="608.85,-328.33 617.98,-322.95 607.49,-321.47 608.85,-328.33"/>
</g>
</g>
</svg>
