<?xml version="1.0" encoding="UTF-8" standalone="no"?>
<!DOCTYPE svg PUBLIC "-//W3C//DTD SVG 1.1//EN"
 "http://www.w3.org/Graphics/SVG/1.1/DTD/svg11.dtd">
<!-- Generated by graphviz version 6.0.2 (20221011.1828)
 -->
<!-- Pages: 1 -->
<svg width="1036pt" height="404pt"
 viewBox="0.00 0.00 1035.94 404.00" xmlns="http://www.w3.org/2000/svg" xmlns:xlink="http://www.w3.org/1999/xlink">
<g id="graph0" class="graph" transform="scale(1 1) rotate(0) translate(4 400)">
<polygon fill="white" stroke="none" points="-4,4 -4,-400 1031.94,-400 1031.94,4 -4,4"/>
<!-- [root] aws_instance.webgd (expand) -->
<g id="node1" class="node">
<title>[root] aws_instance.webgd (expand)</title>
<polygon fill="none" stroke="black" points="388.44,-252 256.44,-252 256.44,-216 388.44,-216 388.44,-252"/>
<text text-anchor="middle" x="322.44" y="-230.3" font-family="Times New Roman,serif" font-size="14.00">aws_instance.webgd</text>
</g>
<!-- [root] aws_key_pair.ssh (expand) -->
<g id="node2" class="node">
<title>[root] aws_key_pair.ssh (expand)</title>
<polygon fill="none" stroke="black" points="326.44,-180 210.44,-180 210.44,-144 326.44,-144 326.44,-180"/>
<text text-anchor="middle" x="268.44" y="-158.3" font-family="Times New Roman,serif" font-size="14.00">aws_key_pair.ssh</text>
</g>
<!-- [root] aws_instance.webgd (expand)&#45;&gt;[root] aws_key_pair.ssh (expand) -->
<g id="edge1" class="edge">
<title>[root] aws_instance.webgd (expand)&#45;&gt;[root] aws_key_pair.ssh (expand)</title>
<path fill="none" stroke="black" d="M309.09,-215.7C302.68,-207.39 294.88,-197.28 287.83,-188.14"/>
<polygon fill="black" stroke="black" points="290.51,-185.88 281.63,-180.1 284.97,-190.16 290.51,-185.88"/>
</g>
<!-- [root] var.amis -->
<g id="node8" class="node">
<title>[root] var.amis</title>
<polygon fill="none" stroke="black" points="401.94,-180 344.94,-180 344.94,-144 407.94,-144 407.94,-174 401.94,-180"/>
<polyline fill="none" stroke="black" points="401.94,-180 401.94,-174"/>
<polyline fill="none" stroke="black" points="407.94,-174 401.94,-174"/>
<text text-anchor="middle" x="376.44" y="-158.3" font-family="Times New Roman,serif" font-size="14.00">var.amis</text>
</g>
<!-- [root] aws_instance.webgd (expand)&#45;&gt;[root] var.amis -->
<g id="edge2" class="edge">
<title>[root] aws_instance.webgd (expand)&#45;&gt;[root] var.amis</title>
<path fill="none" stroke="black" d="M335.79,-215.7C342.2,-207.39 350,-197.28 357.05,-188.14"/>
<polygon fill="black" stroke="black" points="359.91,-190.16 363.25,-180.1 354.37,-185.88 359.91,-190.16"/>
</g>
<!-- [root] var.instance_type -->
<g id="node9" class="node">
<title>[root] var.instance_type</title>
<polygon fill="none" stroke="black" points="534.44,-180 426.44,-180 426.44,-144 540.44,-144 540.44,-174 534.44,-180"/>
<polyline fill="none" stroke="black" points="534.44,-180 534.44,-174"/>
<polyline fill="none" stroke="black" points="540.44,-174 534.44,-174"/>
<text text-anchor="middle" x="483.44" y="-158.3" font-family="Times New Roman,serif" font-size="14.00">var.instance_type</text>
</g>
<!-- [root] aws_instance.webgd (expand)&#45;&gt;[root] var.instance_type -->
<g id="edge3" class="edge">
<title>[root] aws_instance.webgd (expand)&#45;&gt;[root] var.instance_type</title>
<path fill="none" stroke="black" d="M361.83,-215.88C383.83,-206.31 411.45,-194.3 434.8,-184.15"/>
<polygon fill="black" stroke="black" points="436.41,-187.27 444.18,-180.07 433.62,-180.85 436.41,-187.27"/>
</g>
<!-- [root] provider[&quot;registry.terraform.io/hashicorp/aws&quot;] -->
<g id="node7" class="node">
<title>[root] provider[&quot;registry.terraform.io/hashicorp/aws&quot;]</title>
<polygon fill="none" stroke="black" points="625.44,-108 368.21,-90 625.44,-72 882.67,-90 625.44,-108"/>
<text text-anchor="middle" x="625.44" y="-86.3" font-family="Times New Roman,serif" font-size="14.00">provider[&quot;registry.terraform.io/hashicorp/aws&quot;]</text>
</g>
<!-- [root] aws_key_pair.ssh (expand)&#45;&gt;[root] provider[&quot;registry.terraform.io/hashicorp/aws&quot;] -->
<g id="edge4" class="edge">
<title>[root] aws_key_pair.ssh (expand)&#45;&gt;[root] provider[&quot;registry.terraform.io/hashicorp/aws&quot;]</title>
<path fill="none" stroke="black" d="M326.49,-146.02C329.51,-145.32 332.51,-144.64 335.44,-144 404.93,-128.85 484.43,-114.53 542.59,-104.61"/>
<polygon fill="black" stroke="black" points="543.2,-108.05 552.47,-102.93 542.02,-101.15 543.2,-108.05"/>
</g>
<!-- [root] var.public_key -->
<g id="node10" class="node">
<title>[root] var.public_key</title>
<polygon fill="none" stroke="black" points="311.94,-108 218.94,-108 218.94,-72 317.94,-72 317.94,-102 311.94,-108"/>
<polyline fill="none" stroke="black" points="311.94,-108 311.94,-102"/>
<polyline fill="none" stroke="black" points="317.94,-102 311.94,-102"/>
<text text-anchor="middle" x="268.44" y="-86.3" font-family="Times New Roman,serif" font-size="14.00">var.public_key</text>
</g>
<!-- [root] aws_key_pair.ssh (expand)&#45;&gt;[root] var.public_key -->
<g id="edge5" class="edge">
<title>[root] aws_key_pair.ssh (expand)&#45;&gt;[root] var.public_key</title>
<path fill="none" stroke="black" d="M268.44,-143.7C268.44,-135.98 268.44,-126.71 268.44,-118.11"/>
<polygon fill="black" stroke="black" points="271.94,-118.1 268.44,-108.1 264.94,-118.1 271.94,-118.1"/>
</g>
<!-- [root] aws_security_group_rule.httpdgd (expand) -->
<g id="node3" class="node">
<title>[root] aws_security_group_rule.httpdgd (expand)</title>
<polygon fill="none" stroke="black" points="611.94,-252 406.94,-252 406.94,-216 611.94,-216 611.94,-252"/>
<text text-anchor="middle" x="509.44" y="-230.3" font-family="Times New Roman,serif" font-size="14.00">aws_security_group_rule.httpdgd</text>
</g>
<!-- [root] data.aws_security_group.default (expand) -->
<g id="node6" class="node">
<title>[root] data.aws_security_group.default (expand)</title>
<polygon fill="none" stroke="black" points="787.44,-180 589.44,-180 589.44,-144 787.44,-144 787.44,-180"/>
<text text-anchor="middle" x="688.44" y="-158.3" font-family="Times New Roman,serif" font-size="14.00">data.aws_security_group.default</text>
</g>
<!-- [root] aws_security_group_rule.httpdgd (expand)&#45;&gt;[root] data.aws_security_group.default (expand) -->
<g id="edge6" class="edge">
<title>[root] aws_security_group_rule.httpdgd (expand)&#45;&gt;[root] data.aws_security_group.default (expand)</title>
<path fill="none" stroke="black" d="M553.23,-215.88C578.03,-206.18 609.22,-193.98 635.4,-183.74"/>
<polygon fill="black" stroke="black" points="636.76,-186.97 644.79,-180.07 634.21,-180.45 636.76,-186.97"/>
</g>
<!-- [root] aws_security_group_rule.ssh (expand) -->
<g id="node4" class="node">
<title>[root] aws_security_group_rule.ssh (expand)</title>
<polygon fill="none" stroke="black" points="810.44,-252 630.44,-252 630.44,-216 810.44,-216 810.44,-252"/>
<text text-anchor="middle" x="720.44" y="-230.3" font-family="Times New Roman,serif" font-size="14.00">aws_security_group_rule.ssh</text>
</g>
<!-- [root] aws_security_group_rule.ssh (expand)&#45;&gt;[root] data.aws_security_group.default (expand) -->
<g id="edge7" class="edge">
<title>[root] aws_security_group_rule.ssh (expand)&#45;&gt;[root] data.aws_security_group.default (expand)</title>
<path fill="none" stroke="black" d="M712.53,-215.7C708.89,-207.73 704.49,-198.1 700.45,-189.26"/>
<polygon fill="black" stroke="black" points="703.6,-187.74 696.26,-180.1 697.23,-190.65 703.6,-187.74"/>
</g>
<!-- [root] aws_security_group_rule.webgd (expand) -->
<g id="node5" class="node">
<title>[root] aws_security_group_rule.webgd (expand)</title>
<polygon fill="none" stroke="black" points="1027.94,-252 828.94,-252 828.94,-216 1027.94,-216 1027.94,-252"/>
<text text-anchor="middle" x="928.44" y="-230.3" font-family="Times New Roman,serif" font-size="14.00">aws_security_group_rule.webgd</text>
</g>
<!-- [root] aws_security_group_rule.webgd (expand)&#45;&gt;[root] data.aws_security_group.default (expand) -->
<g id="edge8" class="edge">
<title>[root] aws_security_group_rule.webgd (expand)&#45;&gt;[root] data.aws_security_group.default (expand)</title>
<path fill="none" stroke="black" d="M870.04,-215.97C835.92,-206.01 792.69,-193.41 756.97,-182.99"/>
<polygon fill="black" stroke="black" points="757.69,-179.55 747.11,-180.11 755.73,-186.27 757.69,-179.55"/>
</g>
<!-- [root] data.aws_security_group.default (expand)&#45;&gt;[root] provider[&quot;registry.terraform.io/hashicorp/aws&quot;] -->
<g id="edge9" class="edge">
<title>[root] data.aws_security_group.default (expand)&#45;&gt;[root] provider[&quot;registry.terraform.io/hashicorp/aws&quot;]</title>
<path fill="none" stroke="black" d="M672.87,-143.7C665.01,-134.97 655.36,-124.24 646.82,-114.75"/>
<polygon fill="black" stroke="black" points="649.26,-112.24 639.97,-107.14 644.06,-116.92 649.26,-112.24"/>
</g>
<!-- [root] var.region -->
<g id="node11" class="node">
<title>[root] var.region</title>
<polygon fill="none" stroke="black" points="655.44,-36 589.44,-36 589.44,0 661.44,0 661.44,-30 655.44,-36"/>
<polyline fill="none" stroke="black" points="655.44,-36 655.44,-30"/>
<polyline fill="none" stroke="black" points="661.44,-30 655.44,-30"/>
<text text-anchor="middle" x="625.44" y="-14.3" font-family="Times New Roman,serif" font-size="14.00">var.region</text>
</g>
<!-- [root] provider[&quot;registry.terraform.io/hashicorp/aws&quot;]&#45;&gt;[root] var.region -->
<g id="edge16" class="edge">
<title>[root] provider[&quot;registry.terraform.io/hashicorp/aws&quot;]&#45;&gt;[root] var.region</title>
<path fill="none" stroke="black" d="M625.44,-71.7C625.44,-63.98 625.44,-54.71 625.44,-46.11"/>
<polygon fill="black" stroke="black" points="628.94,-46.1 625.44,-36.1 621.94,-46.1 628.94,-46.1"/>
</g>
<!-- [root] output.DNS (expand) -->
<g id="node12" class="node">
<title>[root] output.DNS (expand)</title>
<ellipse fill="none" stroke="black" cx="112.44" cy="-306" rx="112.38" ry="18"/>
<text text-anchor="middle" x="112.44" y="-302.3" font-family="Times New Roman,serif" font-size="14.00">[root] output.DNS (expand)</text>
</g>
<!-- [root] output.DNS (expand)&#45;&gt;[root] aws_instance.webgd (expand) -->
<g id="edge10" class="edge">
<title>[root] output.DNS (expand)&#45;&gt;[root] aws_instance.webgd (expand)</title>
<path fill="none" stroke="black" d="M158.79,-289.55C189.13,-279.44 229.09,-266.12 261.93,-255.17"/>
<polygon fill="black" stroke="black" points="263.05,-258.49 271.43,-252 260.84,-251.84 263.05,-258.49"/>
</g>
<!-- [root] output.IP (expand) -->
<g id="node13" class="node">
<title>[root] output.IP (expand)</title>
<ellipse fill="none" stroke="black" cx="345.44" cy="-306" rx="102.88" ry="18"/>
<text text-anchor="middle" x="345.44" y="-302.3" font-family="Times New Roman,serif" font-size="14.00">[root] output.IP (expand)</text>
</g>
<!-- [root] output.IP (expand)&#45;&gt;[root] aws_instance.webgd (expand) -->
<g id="edge11" class="edge">
<title>[root] output.IP (expand)&#45;&gt;[root] aws_instance.webgd (expand)</title>
<path fill="none" stroke="black" d="M339.75,-287.7C337.19,-279.9 334.11,-270.51 331.26,-261.83"/>
<polygon fill="black" stroke="black" points="334.51,-260.51 328.06,-252.1 327.86,-262.7 334.51,-260.51"/>
</g>
<!-- [root] provider[&quot;registry.terraform.io/hashicorp/aws&quot;] (close) -->
<g id="node14" class="node">
<title>[root] provider[&quot;registry.terraform.io/hashicorp/aws&quot;] (close)</title>
<ellipse fill="none" stroke="black" cx="698.44" cy="-306" rx="232.86" ry="18"/>
<text text-anchor="middle" x="698.44" y="-302.3" font-family="Times New Roman,serif" font-size="14.00">[root] provider[&quot;registry.terraform.io/hashicorp/aws&quot;] (close)</text>
</g>
<!-- [root] provider[&quot;registry.terraform.io/hashicorp/aws&quot;] (close)&#45;&gt;[root] aws_instance.webgd (expand) -->
<g id="edge12" class="edge">
<title>[root] provider[&quot;registry.terraform.io/hashicorp/aws&quot;] (close)&#45;&gt;[root] aws_instance.webgd (expand)</title>
<path fill="none" stroke="black" d="M603.66,-289.52C546.83,-279.96 472.91,-267.01 398.66,-252.2"/>
<polygon fill="black" stroke="black" points="399.15,-248.73 388.66,-250.19 397.77,-255.59 399.15,-248.73"/>
</g>
<!-- [root] provider[&quot;registry.terraform.io/hashicorp/aws&quot;] (close)&#45;&gt;[root] aws_security_group_rule.httpdgd (expand) -->
<g id="edge13" class="edge">
<title>[root] provider[&quot;registry.terraform.io/hashicorp/aws&quot;] (close)&#45;&gt;[root] aws_security_group_rule.httpdgd (expand)</title>
<path fill="none" stroke="black" d="M653.17,-288.23C626.79,-278.46 593.32,-266.07 565.31,-255.69"/>
<polygon fill="black" stroke="black" points="566.25,-252.31 555.65,-252.12 563.82,-258.87 566.25,-252.31"/>
</g>
<!-- [root] provider[&quot;registry.terraform.io/hashicorp/aws&quot;] (close)&#45;&gt;[root] aws_security_group_rule.ssh (expand) -->
<g id="edge14" class="edge">
<title>[root] provider[&quot;registry.terraform.io/hashicorp/aws&quot;] (close)&#45;&gt;[root] aws_security_group_rule.ssh (expand)</title>
<path fill="none" stroke="black" d="M703.88,-287.7C706.33,-279.9 709.28,-270.51 712.01,-261.83"/>
<polygon fill="black" stroke="black" points="715.41,-262.69 715.06,-252.1 708.73,-260.59 715.41,-262.69"/>
</g>
<!-- [root] provider[&quot;registry.terraform.io/hashicorp/aws&quot;] (close)&#45;&gt;[root] aws_security_group_rule.webgd (expand) -->
<g id="edge15" class="edge">
<title>[root] provider[&quot;registry.terraform.io/hashicorp/aws&quot;] (close)&#45;&gt;[root] aws_security_group_rule.webgd (expand)</title>
<path fill="none" stroke="black" d="M752.95,-288.41C785.85,-278.4 828,-265.57 862.74,-255"/>
<polygon fill="black" stroke="black" points="863.78,-258.34 872.33,-252.08 861.74,-251.64 863.78,-258.34"/>
</g>
<!-- [root] root -->
<g id="node15" class="node">
<title>[root] root</title>
<ellipse fill="none" stroke="black" cx="345.44" cy="-378" rx="49.29" ry="18"/>
<text text-anchor="middle" x="345.44" y="-374.3" font-family="Times New Roman,serif" font-size="14.00">[root] root</text>
</g>
<!-- [root] root&#45;&gt;[root] output.DNS (expand) -->
<g id="edge17" class="edge">
<title>[root] root&#45;&gt;[root] output.DNS (expand)</title>
<path fill="none" stroke="black" d="M308.52,-365.91C272.09,-354.96 215.78,-338.05 172.83,-325.14"/>
<polygon fill="black" stroke="black" points="173.64,-321.73 163.05,-322.21 171.62,-328.44 173.64,-321.73"/>
</g>
<!-- [root] root&#45;&gt;[root] output.IP (expand) -->
<g id="edge18" class="edge">
<title>[root] root&#45;&gt;[root] output.IP (expand)</title>
<path fill="none" stroke="black" d="M345.44,-359.7C345.44,-351.98 345.44,-342.71 345.44,-334.11"/>
<polygon fill="black" stroke="black" points="348.94,-334.1 345.44,-324.1 341.94,-334.1 348.94,-334.1"/>
</g>
<!-- [root] root&#45;&gt;[root] provider[&quot;registry.terraform.io/hashicorp/aws&quot;] (close) -->
<g id="edge19" class="edge">
<title>[root] root&#45;&gt;[root] provider[&quot;registry.terraform.io/hashicorp/aws&quot;] (close)</title>
<path fill="none" stroke="black" d="M387.67,-368.63C441.85,-357.88 537.29,-338.96 608.15,-324.9"/>
<polygon fill="black" stroke="black" points="608.85,-328.33 617.98,-322.95 607.49,-321.47 608.85,-328.33"/>
</g>
</g>
</svg>
